<svg width="533" height="382" viewBox="0 0 533 382" fill="none" xmlns="http://www.w3.org/2000/svg">
<path d="M507.24 0.0390396H285.48C271.48 0.0390396 259.16 11.238 259.16 25.801V198.281L264.199 197.16C268.121 196.601 272.039 196.039 275.398 196.039H279.879L292.199 197.16C306.199 198.281 318.519 205.558 326.918 216.199C335.316 227.398 338.68 240.84 336.996 254.277L321.875 353.398C320.754 361.238 317.953 367.957 312.914 374.117H520.114C526.833 374.117 532.434 368.515 532.434 361.797V25.7969C533 11.8009 521.239 0.0389404 507.239 0.0389404L507.24 0.0390396ZM466.361 123.799C466.361 127.721 463.56 130.518 459.642 130.518H332.522C328.6 130.518 325.803 127.717 325.803 123.799V71.158C325.803 67.2361 328.604 64.4392 332.522 64.4392H459.642C463.564 64.4392 466.361 67.7986 466.361 71.158V123.799Z" fill="#A3C2B8"/>
<path d="M161.16 242.52C160.601 232.442 163.398 222.918 169 215.079C166.199 214.52 162.84 213.958 158.922 214.52L148.844 215.642L119.723 261.001L133.723 351.161C136.524 367.399 151.645 379.161 167.883 378.04C169.563 378.04 171.242 377.481 172.922 376.918C170.121 371.879 169 366.277 168.441 360.117L161.16 242.52Z" fill="#A3C2B8"/>
<path d="M291.08 215.64L278.76 214.519C275.401 214.519 272.041 214.519 268.682 215.078C274.284 222.917 277.08 233 276.522 242.519L269.241 360.119C268.682 366.279 267.002 371.881 264.76 376.92C266.44 377.478 268.119 377.478 269.799 378.041C286.6 379.72 301.721 367.963 303.959 351.162L319.08 252.603C322.444 234.119 309.002 217.318 291.08 215.638L291.08 215.64Z" fill="#A3C2B8"/>
<path d="M233.4 215.08H225.002C226.123 201.08 229.482 185.4 232.283 178.119C235.084 171.4 213.803 170.838 212.123 177.561C210.443 183.162 208.201 200.522 207.084 215.081H203.724C189.724 215.081 178.525 226.843 179.083 241.401L186.364 359.001C186.923 371.88 198.126 381.962 211.005 381.962H225.565C238.444 381.962 249.084 371.884 250.205 359.001L257.487 241.401C259.162 227.401 247.963 215.081 233.401 215.081L233.4 215.08Z" fill="#A3C2B8"/>
<path d="M76.6 129.96L130.92 151.241C132.041 151.8 133.158 152.362 133.721 152.362L162.842 124.362C167.322 120.44 165.643 112.6 160.041 110.362C158.92 109.804 157.803 109.804 156.682 109.804C155.56 109.804 153.881 110.362 152.76 110.925L124.76 126.046L132.599 91.8856C133.721 87.9637 131.478 83.4872 127.56 81.8076L126.439 81.249C122.517 79.5693 118.041 81.249 115.798 85.1709L97.8763 115.409L87.7983 85.7179C87.2397 82.9171 84.9975 81.2374 82.7592 80.6788C81.6381 80.1202 80.5209 80.1202 79.3998 80.1202C74.9193 80.1202 70.4389 84.0421 71.0014 89.0811L73.8022 129.401C74.9194 129.397 76.0366 129.397 76.5991 129.96L76.6 129.96Z" fill="#A3C2B8"/>
<path d="M52.52 249.8C54.1997 245.32 59.8012 243.081 64.282 244.761L101.243 259.882L137.083 205.003C146.044 191.562 140.442 173.081 124.763 166.925L71.001 145.077C55.88 138.917 39.079 148.436 36.282 164.679L34.6023 174.757L83.8833 193.796C88.3638 195.476 90.6021 201.077 88.9224 205.558L88.3638 206.679C87.2427 210.601 83.3247 212.281 79.9654 212.281C78.8443 212.281 77.7271 212.281 76.606 211.722L31.247 193.8L15.001 287.32L38.521 296.281C40.7593 297.402 42.4429 299.082 43.5601 301.32C44.6812 303.558 44.6812 305.801 43.5601 308.039L43.0015 309.16C41.3218 313.082 37.9624 314.762 34.6031 314.762C33.482 314.762 32.3648 314.762 31.2437 314.203L11.6417 306.363L1.00073 366.281C-1.80007 380.281 17.2387 388.121 25.0787 375.801L90.0397 276.121L56.4377 262.68C54.1994 261.559 52.5158 259.879 51.3986 257.641C50.2775 255.402 50.2775 253.16 51.3986 250.922L52.52 249.8Z" fill="#A3C2B8"/>
</svg>
